<?xml version="1.0" encoding="UTF-8"?>
<svg xmlns="http://www.w3.org/2000/svg" width="1440" height="1190" viewBox="0 0 1440 1190" role="img" aria-labelledby="title description">
<title id="title">Go HTTP stack performance comparison</title>
<desc id="description">Median HTTP/1.1 loopback requests per second and in-process handler operations per second, with observed sample ranges for GoForj Web, net/http, Echo, Gin, Chi, Gorilla Mux, and httprouter.</desc>
<rect width="1440" height="1190" rx="8" fill="#1A1620"/>
<text x="52" y="61" fill="#FFFFFF" font-family="Space Grotesk, Inter, system-ui, sans-serif" font-size="32" font-weight="700" letter-spacing="-1.2">Go HTTP stack performance</text>
<text x="52" y="94" fill="#A9A1B3" font-family="Inter, system-ui, sans-serif" font-size="16">Equivalent endpoint work using idiomatic APIs · medians with observed ranges · not a ranking</text>
<rect x="52" y="116" width="18" height="4" rx="2" fill="#FF5E3A"/><text x="80" y="123" fill="#A9A1B3" font-family="Inter, system-ui, sans-serif" font-size="13">GoForj Web</text>
<line x1="194" y1="118" x2="218" y2="118" stroke="#FFC24D" stroke-width="1.5"/><line x1="194" y1="114" x2="194" y2="122" stroke="#FFC24D" stroke-width="1.5"/><line x1="218" y1="114" x2="218" y2="122" stroke="#FFC24D" stroke-width="1.5"/><text x="230" y="123" fill="#A9A1B3" font-family="Inter, system-ui, sans-serif" font-size="13">Observed sample min–max</text>
<rect x="52" y="154" width="658" height="402" rx="8" fill="#1D1923" stroke="#3D3349"/>
<text x="74" y="188" fill="#FFFFFF" font-family="Space Grotesk, Inter, system-ui, sans-serif" font-size="20" font-weight="700">HTTP/1.1 loopback</text>
<text x="74" y="210" fill="#746C80" font-family="Inter, system-ui, sans-serif" font-size="12">Single-core end-to-end requests/sec · reused keep-alive connection</text>
<text x="74" y="245" fill="#A9A1B3" font-family="Inter, system-ui, sans-serif" font-size="13" font-weight="600">GoForj Web</text>
<rect x="185" y="234" width="270" height="9" rx="4.5" fill="#2C2734"/><rect x="185" y="234" width="263" height="9" rx="4.5" fill="#FF5E3A"/>
<line data-sample-range="live_plain_text/goforj_web" x1="443" y1="238" x2="449" y2="238" stroke="#FFC24D" stroke-width="1.5" stroke-linecap="round"/><line x1="443" y1="234" x2="443" y2="242" stroke="#FFC24D" stroke-width="1.5"/><line x1="449" y1="234" x2="449" y2="242" stroke="#FFC24D" stroke-width="1.5"/>
<text x="688" y="243" fill="#FFFFFF" text-anchor="end" font-family="JetBrains Mono, ui-monospace, monospace" font-size="13" font-weight="650">92.4k req/s</text>
<text x="74" y="288" fill="#A9A1B3" font-family="Inter, system-ui, sans-serif" font-size="13" font-weight="600">net/http</text>
<rect x="185" y="277" width="270" height="9" rx="4.5" fill="#2C2734"/><rect x="185" y="277" width="263" height="9" rx="4.5" fill="#746C80"/>
<line data-sample-range="live_plain_text/net_http" x1="446" y1="281" x2="450" y2="281" stroke="#A9A1B3" stroke-width="1.5" stroke-linecap="round"/><line x1="446" y1="277" x2="446" y2="285" stroke="#A9A1B3" stroke-width="1.5"/><line x1="450" y1="277" x2="450" y2="285" stroke="#A9A1B3" stroke-width="1.5"/>
<text x="688" y="286" fill="#FFFFFF" text-anchor="end" font-family="JetBrains Mono, ui-monospace, monospace" font-size="13" font-weight="650">92.2k req/s</text>
<text x="74" y="331" fill="#A9A1B3" font-family="Inter, system-ui, sans-serif" font-size="13" font-weight="600">Echo</text>
<rect x="185" y="320" width="270" height="9" rx="4.5" fill="#2C2734"/><rect x="185" y="320" width="263" height="9" rx="4.5" fill="#746C80"/>
<line data-sample-range="live_plain_text/echo" x1="430" y1="324" x2="449" y2="324" stroke="#A9A1B3" stroke-width="1.5" stroke-linecap="round"/><line x1="430" y1="320" x2="430" y2="328" stroke="#A9A1B3" stroke-width="1.5"/><line x1="449" y1="320" x2="449" y2="328" stroke="#A9A1B3" stroke-width="1.5"/>
<text x="688" y="329" fill="#FFFFFF" text-anchor="end" font-family="JetBrains Mono, ui-monospace, monospace" font-size="13" font-weight="650">92.3k req/s</text>
<text x="74" y="374" fill="#A9A1B3" font-family="Inter, system-ui, sans-serif" font-size="13" font-weight="600">Gin</text>
<rect x="185" y="363" width="270" height="9" rx="4.5" fill="#2C2734"/><rect x="185" y="363" width="264" height="9" rx="4.5" fill="#746C80"/>
<line data-sample-range="live_plain_text/gin" x1="446" y1="367" x2="450" y2="367" stroke="#A9A1B3" stroke-width="1.5" stroke-linecap="round"/><line x1="446" y1="363" x2="446" y2="371" stroke="#A9A1B3" stroke-width="1.5"/><line x1="450" y1="363" x2="450" y2="371" stroke="#A9A1B3" stroke-width="1.5"/>
<text x="688" y="372" fill="#FFFFFF" text-anchor="end" font-family="JetBrains Mono, ui-monospace, monospace" font-size="13" font-weight="650">92.8k req/s</text>
<text x="74" y="417" fill="#A9A1B3" font-family="Inter, system-ui, sans-serif" font-size="13" font-weight="600">Chi</text>
<rect x="185" y="406" width="270" height="9" rx="4.5" fill="#2C2734"/><rect x="185" y="406" width="262" height="9" rx="4.5" fill="#746C80"/>
<line data-sample-range="live_plain_text/chi" x1="446" y1="410" x2="449" y2="410" stroke="#A9A1B3" stroke-width="1.5" stroke-linecap="round"/><line x1="446" y1="406" x2="446" y2="414" stroke="#A9A1B3" stroke-width="1.5"/><line x1="449" y1="406" x2="449" y2="414" stroke="#A9A1B3" stroke-width="1.5"/>
<text x="688" y="415" fill="#FFFFFF" text-anchor="end" font-family="JetBrains Mono, ui-monospace, monospace" font-size="13" font-weight="650">91.9k req/s</text>
<text x="74" y="460" fill="#A9A1B3" font-family="Inter, system-ui, sans-serif" font-size="13" font-weight="600">Gorilla Mux</text>
<rect x="185" y="449" width="270" height="9" rx="4.5" fill="#2C2734"/><rect x="185" y="449" width="255" height="9" rx="4.5" fill="#746C80"/>
<line data-sample-range="live_plain_text/gorilla_mux" x1="439" y1="453" x2="443" y2="453" stroke="#A9A1B3" stroke-width="1.5" stroke-linecap="round"/><line x1="439" y1="449" x2="439" y2="457" stroke="#A9A1B3" stroke-width="1.5"/><line x1="443" y1="449" x2="443" y2="457" stroke="#A9A1B3" stroke-width="1.5"/>
<text x="688" y="458" fill="#FFFFFF" text-anchor="end" font-family="JetBrains Mono, ui-monospace, monospace" font-size="13" font-weight="650">89.4k req/s</text>
<text x="74" y="503" fill="#A9A1B3" font-family="Inter, system-ui, sans-serif" font-size="13" font-weight="600">httprouter</text>
<rect x="185" y="492" width="270" height="9" rx="4.5" fill="#2C2734"/><rect x="185" y="492" width="267" height="9" rx="4.5" fill="#746C80"/>
<line data-sample-range="live_plain_text/httprouter" x1="449" y1="496" x2="455" y2="496" stroke="#A9A1B3" stroke-width="1.5" stroke-linecap="round"/><line x1="449" y1="492" x2="449" y2="500" stroke="#A9A1B3" stroke-width="1.5"/><line x1="455" y1="492" x2="455" y2="500" stroke="#A9A1B3" stroke-width="1.5"/>
<text x="688" y="501" fill="#FFFFFF" text-anchor="end" font-family="JetBrains Mono, ui-monospace, monospace" font-size="13" font-weight="650">93.7k req/s</text>
<rect x="730" y="154" width="658" height="402" rx="8" fill="#1D1923" stroke="#3D3349"/>
<text x="752" y="188" fill="#FFFFFF" font-family="Space Grotesk, Inter, system-ui, sans-serif" font-size="20" font-weight="700">Plaintext route</text>
<text x="752" y="210" fill="#746C80" font-family="Inter, system-ui, sans-serif" font-size="12">In-process ServeHTTP operations/sec</text>
<text x="752" y="245" fill="#A9A1B3" font-family="Inter, system-ui, sans-serif" font-size="13" font-weight="600">GoForj Web</text>
<rect x="863" y="234" width="270" height="9" rx="4.5" fill="#2C2734"/><rect x="863" y="234" width="117" height="9" rx="4.5" fill="#FF5E3A"/>
<line data-sample-range="static_text/goforj_web" x1="975" y1="238" x2="985" y2="238" stroke="#FFC24D" stroke-width="1.5" stroke-linecap="round"/><line x1="975" y1="234" x2="975" y2="242" stroke="#FFC24D" stroke-width="1.5"/><line x1="985" y1="234" x2="985" y2="242" stroke="#FFC24D" stroke-width="1.5"/>
<text x="1366" y="243" fill="#FFFFFF" text-anchor="end" font-family="JetBrains Mono, ui-monospace, monospace" font-size="13" font-weight="650">7.19M ops/s</text>
<text x="863" y="256" fill="#746C80" font-family="JetBrains Mono, ui-monospace, monospace" font-size="11">139 ns/op · 16 B/op · 1 allocs/op</text>
<text x="752" y="288" fill="#A9A1B3" font-family="Inter, system-ui, sans-serif" font-size="13" font-weight="600">net/http</text>
<rect x="863" y="277" width="270" height="9" rx="4.5" fill="#2C2734"/><rect x="863" y="277" width="127" height="9" rx="4.5" fill="#746C80"/>
<line data-sample-range="static_text/net_http" x1="989" y1="281" x2="994" y2="281" stroke="#A9A1B3" stroke-width="1.5" stroke-linecap="round"/><line x1="989" y1="277" x2="989" y2="285" stroke="#A9A1B3" stroke-width="1.5"/><line x1="994" y1="277" x2="994" y2="285" stroke="#A9A1B3" stroke-width="1.5"/>
<text x="1366" y="286" fill="#FFFFFF" text-anchor="end" font-family="JetBrains Mono, ui-monospace, monospace" font-size="13" font-weight="650">7.78M ops/s</text>
<text x="863" y="299" fill="#746C80" font-family="JetBrains Mono, ui-monospace, monospace" font-size="11">128.60 ns/op · 16 B/op · 1 allocs/op</text>
<text x="752" y="331" fill="#A9A1B3" font-family="Inter, system-ui, sans-serif" font-size="13" font-weight="600">Echo</text>
<rect x="863" y="320" width="270" height="9" rx="4.5" fill="#2C2734"/><rect x="863" y="320" width="117" height="9" rx="4.5" fill="#746C80"/>
<line data-sample-range="static_text/echo" x1="978" y1="324" x2="984" y2="324" stroke="#A9A1B3" stroke-width="1.5" stroke-linecap="round"/><line x1="978" y1="320" x2="978" y2="328" stroke="#A9A1B3" stroke-width="1.5"/><line x1="984" y1="320" x2="984" y2="328" stroke="#A9A1B3" stroke-width="1.5"/>
<text x="1366" y="329" fill="#FFFFFF" text-anchor="end" font-family="JetBrains Mono, ui-monospace, monospace" font-size="13" font-weight="650">7.18M ops/s</text>
<text x="863" y="342" fill="#746C80" font-family="JetBrains Mono, ui-monospace, monospace" font-size="11">139.20 ns/op · 16 B/op · 1 allocs/op</text>
<text x="752" y="374" fill="#A9A1B3" font-family="Inter, system-ui, sans-serif" font-size="13" font-weight="600">Gin</text>
<rect x="863" y="363" width="270" height="9" rx="4.5" fill="#2C2734"/><rect x="863" y="363" width="114" height="9" rx="4.5" fill="#746C80"/>
<line data-sample-range="static_text/gin" x1="977" y1="367" x2="984" y2="367" stroke="#A9A1B3" stroke-width="1.5" stroke-linecap="round"/><line x1="977" y1="363" x2="977" y2="371" stroke="#A9A1B3" stroke-width="1.5"/><line x1="984" y1="363" x2="984" y2="371" stroke="#A9A1B3" stroke-width="1.5"/>
<text x="1366" y="372" fill="#FFFFFF" text-anchor="end" font-family="JetBrains Mono, ui-monospace, monospace" font-size="13" font-weight="650">7.00M ops/s</text>
<text x="863" y="385" fill="#746C80" font-family="JetBrains Mono, ui-monospace, monospace" font-size="11">142.80 ns/op · 48 B/op · 1 allocs/op</text>
<text x="752" y="417" fill="#A9A1B3" font-family="Inter, system-ui, sans-serif" font-size="13" font-weight="600">Chi</text>
<rect x="863" y="406" width="270" height="9" rx="4.5" fill="#2C2734"/><rect x="863" y="406" width="67" height="9" rx="4.5" fill="#746C80"/>
<line data-sample-range="static_text/chi" x1="930" y1="410" x2="937" y2="410" stroke="#A9A1B3" stroke-width="1.5" stroke-linecap="round"/><line x1="930" y1="406" x2="930" y2="414" stroke="#A9A1B3" stroke-width="1.5"/><line x1="937" y1="406" x2="937" y2="414" stroke="#A9A1B3" stroke-width="1.5"/>
<text x="1366" y="415" fill="#FFFFFF" text-anchor="end" font-family="JetBrains Mono, ui-monospace, monospace" font-size="13" font-weight="650">4.13M ops/s</text>
<text x="863" y="428" fill="#746C80" font-family="JetBrains Mono, ui-monospace, monospace" font-size="11">242.20 ns/op · 384 B/op · 3 allocs/op</text>
<text x="752" y="460" fill="#A9A1B3" font-family="Inter, system-ui, sans-serif" font-size="13" font-weight="600">Gorilla Mux</text>
<rect x="863" y="449" width="270" height="9" rx="4.5" fill="#2C2734"/><rect x="863" y="449" width="37" height="9" rx="4.5" fill="#746C80"/>
<line data-sample-range="static_text/gorilla_mux" x1="900" y1="453" x2="907" y2="453" stroke="#A9A1B3" stroke-width="1.5" stroke-linecap="round"/><line x1="900" y1="449" x2="900" y2="457" stroke="#A9A1B3" stroke-width="1.5"/><line x1="907" y1="449" x2="907" y2="457" stroke="#A9A1B3" stroke-width="1.5"/>
<text x="1366" y="458" fill="#FFFFFF" text-anchor="end" font-family="JetBrains Mono, ui-monospace, monospace" font-size="13" font-weight="650">2.26M ops/s</text>
<text x="863" y="471" fill="#746C80" font-family="JetBrains Mono, ui-monospace, monospace" font-size="11">442.70 ns/op · 864 B/op · 8 allocs/op</text>
<text x="752" y="503" fill="#A9A1B3" font-family="Inter, system-ui, sans-serif" font-size="13" font-weight="600">httprouter</text>
<rect x="863" y="492" width="270" height="9" rx="4.5" fill="#2C2734"/><rect x="863" y="492" width="260" height="9" rx="4.5" fill="#746C80"/>
<line data-sample-range="static_text/httprouter" x1="1122" y1="496" x2="1133" y2="496" stroke="#A9A1B3" stroke-width="1.5" stroke-linecap="round"/><line x1="1122" y1="492" x2="1122" y2="500" stroke="#A9A1B3" stroke-width="1.5"/><line x1="1133" y1="492" x2="1133" y2="500" stroke="#A9A1B3" stroke-width="1.5"/>
<text x="1366" y="501" fill="#FFFFFF" text-anchor="end" font-family="JetBrains Mono, ui-monospace, monospace" font-size="13" font-weight="650">15.97M ops/s</text>
<text x="863" y="514" fill="#746C80" font-family="JetBrains Mono, ui-monospace, monospace" font-size="11">62.61 ns/op · 16 B/op · 1 allocs/op</text>
<rect x="52" y="584" width="658" height="402" rx="8" fill="#1D1923" stroke="#3D3349"/>
<text x="74" y="618" fill="#FFFFFF" font-family="Space Grotesk, Inter, system-ui, sans-serif" font-size="20" font-weight="700">Path parameter + JSON</text>
<text x="74" y="640" fill="#746C80" font-family="Inter, system-ui, sans-serif" font-size="12">In-process ServeHTTP operations/sec</text>
<text x="74" y="675" fill="#A9A1B3" font-family="Inter, system-ui, sans-serif" font-size="13" font-weight="600">GoForj Web</text>
<rect x="185" y="664" width="270" height="9" rx="4.5" fill="#2C2734"/><rect x="185" y="664" width="178" height="9" rx="4.5" fill="#FF5E3A"/>
<line data-sample-range="path_param_json/goforj_web" x1="362" y1="668" x2="372" y2="668" stroke="#FFC24D" stroke-width="1.5" stroke-linecap="round"/><line x1="362" y1="664" x2="362" y2="672" stroke="#FFC24D" stroke-width="1.5"/><line x1="372" y1="664" x2="372" y2="672" stroke="#FFC24D" stroke-width="1.5"/>
<text x="688" y="673" fill="#FFFFFF" text-anchor="end" font-family="JetBrains Mono, ui-monospace, monospace" font-size="13" font-weight="650">3.36M ops/s</text>
<text x="185" y="686" fill="#746C80" font-family="JetBrains Mono, ui-monospace, monospace" font-size="11">297.70 ns/op · 48 B/op · 3 allocs/op</text>
<text x="74" y="718" fill="#A9A1B3" font-family="Inter, system-ui, sans-serif" font-size="13" font-weight="600">net/http</text>
<rect x="185" y="707" width="270" height="9" rx="4.5" fill="#2C2734"/><rect x="185" y="707" width="171" height="9" rx="4.5" fill="#746C80"/>
<line data-sample-range="path_param_json/net_http" x1="353" y1="711" x2="371" y2="711" stroke="#A9A1B3" stroke-width="1.5" stroke-linecap="round"/><line x1="353" y1="707" x2="353" y2="715" stroke="#A9A1B3" stroke-width="1.5"/><line x1="371" y1="707" x2="371" y2="715" stroke="#A9A1B3" stroke-width="1.5"/>
<text x="688" y="716" fill="#FFFFFF" text-anchor="end" font-family="JetBrains Mono, ui-monospace, monospace" font-size="13" font-weight="650">3.21M ops/s</text>
<text x="185" y="729" fill="#746C80" font-family="JetBrains Mono, ui-monospace, monospace" font-size="11">311.20 ns/op · 64 B/op · 4 allocs/op</text>
<text x="74" y="761" fill="#A9A1B3" font-family="Inter, system-ui, sans-serif" font-size="13" font-weight="600">Echo</text>
<rect x="185" y="750" width="270" height="9" rx="4.5" fill="#2C2734"/><rect x="185" y="750" width="171" height="9" rx="4.5" fill="#746C80"/>
<line data-sample-range="path_param_json/echo" x1="355" y1="754" x2="364" y2="754" stroke="#A9A1B3" stroke-width="1.5" stroke-linecap="round"/><line x1="355" y1="750" x2="355" y2="758" stroke="#A9A1B3" stroke-width="1.5"/><line x1="364" y1="750" x2="364" y2="758" stroke="#A9A1B3" stroke-width="1.5"/>
<text x="688" y="759" fill="#FFFFFF" text-anchor="end" font-family="JetBrains Mono, ui-monospace, monospace" font-size="13" font-weight="650">3.21M ops/s</text>
<text x="185" y="772" fill="#746C80" font-family="JetBrains Mono, ui-monospace, monospace" font-size="11">311.20 ns/op · 48 B/op · 3 allocs/op</text>
<text x="74" y="804" fill="#A9A1B3" font-family="Inter, system-ui, sans-serif" font-size="13" font-weight="600">Gin</text>
<rect x="185" y="793" width="270" height="9" rx="4.5" fill="#2C2734"/><rect x="185" y="793" width="179" height="9" rx="4.5" fill="#746C80"/>
<line data-sample-range="path_param_json/gin" x1="361" y1="797" x2="380" y2="797" stroke="#A9A1B3" stroke-width="1.5" stroke-linecap="round"/><line x1="361" y1="793" x2="361" y2="801" stroke="#A9A1B3" stroke-width="1.5"/><line x1="380" y1="793" x2="380" y2="801" stroke="#A9A1B3" stroke-width="1.5"/>
<text x="688" y="802" fill="#FFFFFF" text-anchor="end" font-family="JetBrains Mono, ui-monospace, monospace" font-size="13" font-weight="650">3.36M ops/s</text>
<text x="185" y="815" fill="#746C80" font-family="JetBrains Mono, ui-monospace, monospace" font-size="11">297.30 ns/op · 64 B/op · 4 allocs/op</text>
<text x="74" y="847" fill="#A9A1B3" font-family="Inter, system-ui, sans-serif" font-size="13" font-weight="600">Chi</text>
<rect x="185" y="836" width="270" height="9" rx="4.5" fill="#2C2734"/><rect x="185" y="836" width="101" height="9" rx="4.5" fill="#746C80"/>
<line data-sample-range="path_param_json/chi" x1="285" y1="840" x2="300" y2="840" stroke="#A9A1B3" stroke-width="1.5" stroke-linecap="round"/><line x1="285" y1="836" x2="285" y2="844" stroke="#A9A1B3" stroke-width="1.5"/><line x1="300" y1="836" x2="300" y2="844" stroke="#A9A1B3" stroke-width="1.5"/>
<text x="688" y="845" fill="#FFFFFF" text-anchor="end" font-family="JetBrains Mono, ui-monospace, monospace" font-size="13" font-weight="650">1.91M ops/s</text>
<text x="185" y="858" fill="#746C80" font-family="JetBrains Mono, ui-monospace, monospace" font-size="11">523.70 ns/op · 752 B/op · 7 allocs/op</text>
<text x="74" y="890" fill="#A9A1B3" font-family="Inter, system-ui, sans-serif" font-size="13" font-weight="600">Gorilla Mux</text>
<rect x="185" y="879" width="270" height="9" rx="4.5" fill="#2C2734"/><rect x="185" y="879" width="73" height="9" rx="4.5" fill="#746C80"/>
<line data-sample-range="path_param_json/gorilla_mux" x1="258" y1="883" x2="270" y2="883" stroke="#A9A1B3" stroke-width="1.5" stroke-linecap="round"/><line x1="258" y1="879" x2="258" y2="887" stroke="#A9A1B3" stroke-width="1.5"/><line x1="270" y1="879" x2="270" y2="887" stroke="#A9A1B3" stroke-width="1.5"/>
<text x="688" y="888" fill="#FFFFFF" text-anchor="end" font-family="JetBrains Mono, ui-monospace, monospace" font-size="13" font-weight="650">1.38M ops/s</text>
<text x="185" y="901" fill="#746C80" font-family="JetBrains Mono, ui-monospace, monospace" font-size="11">725.70 ns/op · 1200 B/op · 11 allocs/op</text>
<text x="74" y="933" fill="#A9A1B3" font-family="Inter, system-ui, sans-serif" font-size="13" font-weight="600">httprouter</text>
<rect x="185" y="922" width="270" height="9" rx="4.5" fill="#2C2734"/><rect x="185" y="922" width="235" height="9" rx="4.5" fill="#746C80"/>
<line data-sample-range="path_param_json/httprouter" x1="418" y1="926" x2="455" y2="926" stroke="#A9A1B3" stroke-width="1.5" stroke-linecap="round"/><line x1="418" y1="922" x2="418" y2="930" stroke="#A9A1B3" stroke-width="1.5"/><line x1="455" y1="922" x2="455" y2="930" stroke="#A9A1B3" stroke-width="1.5"/>
<text x="688" y="931" fill="#FFFFFF" text-anchor="end" font-family="JetBrains Mono, ui-monospace, monospace" font-size="13" font-weight="650">4.43M ops/s</text>
<text x="185" y="944" fill="#746C80" font-family="JetBrains Mono, ui-monospace, monospace" font-size="11">226 ns/op · 80 B/op · 4 allocs/op</text>
<rect x="730" y="584" width="658" height="402" rx="8" fill="#1D1923" stroke="#3D3349"/>
<text x="752" y="618" fill="#FFFFFF" font-family="Space Grotesk, Inter, system-ui, sans-serif" font-size="20" font-weight="700">Middleware: state + header + validation</text>
<text x="752" y="640" fill="#746C80" font-family="Inter, system-ui, sans-serif" font-size="12">In-process ops/sec · paired added latency vs the same sample&#39;s plaintext route</text>
<text x="752" y="675" fill="#A9A1B3" font-family="Inter, system-ui, sans-serif" font-size="13" font-weight="600">GoForj Web</text>
<rect x="863" y="664" width="270" height="9" rx="4.5" fill="#2C2734"/><rect x="863" y="664" width="134" height="9" rx="4.5" fill="#FF5E3A"/>
<line data-sample-range="middleware_chain/goforj_web" x1="994" y1="668" x2="1005" y2="668" stroke="#FFC24D" stroke-width="1.5" stroke-linecap="round"/><line x1="994" y1="664" x2="994" y2="672" stroke="#FFC24D" stroke-width="1.5"/><line x1="1005" y1="664" x2="1005" y2="672" stroke="#FFC24D" stroke-width="1.5"/>
<text x="1366" y="673" fill="#FFFFFF" text-anchor="end" font-family="JetBrains Mono, ui-monospace, monospace" font-size="13" font-weight="650">2.57M ops/s</text>
<text x="863" y="686" fill="#746C80" font-family="JetBrains Mono, ui-monospace, monospace" font-size="11">389.10 ns/op · 64 B/op · 4 allocs/op · +249.60 ns added</text>
<text x="752" y="718" fill="#A9A1B3" font-family="Inter, system-ui, sans-serif" font-size="13" font-weight="600">net/http</text>
<rect x="863" y="707" width="270" height="9" rx="4.5" fill="#2C2734"/><rect x="863" y="707" width="180" height="9" rx="4.5" fill="#746C80"/>
<line data-sample-range="middleware_chain/net_http" x1="1042" y1="711" x2="1064" y2="711" stroke="#A9A1B3" stroke-width="1.5" stroke-linecap="round"/><line x1="1042" y1="707" x2="1042" y2="715" stroke="#A9A1B3" stroke-width="1.5"/><line x1="1064" y1="707" x2="1064" y2="715" stroke="#A9A1B3" stroke-width="1.5"/>
<text x="1366" y="716" fill="#FFFFFF" text-anchor="end" font-family="JetBrains Mono, ui-monospace, monospace" font-size="13" font-weight="650">3.45M ops/s</text>
<text x="863" y="729" fill="#746C80" font-family="JetBrains Mono, ui-monospace, monospace" font-size="11">289.80 ns/op · 400 B/op · 4 allocs/op · +161.60 ns added</text>
<text x="752" y="761" fill="#A9A1B3" font-family="Inter, system-ui, sans-serif" font-size="13" font-weight="600">Echo</text>
<rect x="863" y="750" width="270" height="9" rx="4.5" fill="#2C2734"/><rect x="863" y="750" width="201" height="9" rx="4.5" fill="#746C80"/>
<line data-sample-range="middleware_chain/echo" x1="1059" y1="754" x2="1097" y2="754" stroke="#A9A1B3" stroke-width="1.5" stroke-linecap="round"/><line x1="1059" y1="750" x2="1059" y2="758" stroke="#A9A1B3" stroke-width="1.5"/><line x1="1097" y1="750" x2="1097" y2="758" stroke="#A9A1B3" stroke-width="1.5"/>
<text x="1366" y="759" fill="#FFFFFF" text-anchor="end" font-family="JetBrains Mono, ui-monospace, monospace" font-size="13" font-weight="650">3.85M ops/s</text>
<text x="863" y="772" fill="#746C80" font-family="JetBrains Mono, ui-monospace, monospace" font-size="11">259.70 ns/op · 32 B/op · 2 allocs/op · +123.20 ns added</text>
<text x="752" y="804" fill="#A9A1B3" font-family="Inter, system-ui, sans-serif" font-size="13" font-weight="600">Gin</text>
<rect x="863" y="793" width="270" height="9" rx="4.5" fill="#2C2734"/><rect x="863" y="793" width="152" height="9" rx="4.5" fill="#746C80"/>
<line data-sample-range="middleware_chain/gin" x1="1014" y1="797" x2="1034" y2="797" stroke="#A9A1B3" stroke-width="1.5" stroke-linecap="round"/><line x1="1014" y1="793" x2="1014" y2="801" stroke="#A9A1B3" stroke-width="1.5"/><line x1="1034" y1="793" x2="1034" y2="801" stroke="#A9A1B3" stroke-width="1.5"/>
<text x="1366" y="802" fill="#FFFFFF" text-anchor="end" font-family="JetBrains Mono, ui-monospace, monospace" font-size="13" font-weight="650">2.90M ops/s</text>
<text x="863" y="815" fill="#746C80" font-family="JetBrains Mono, ui-monospace, monospace" font-size="11">344.60 ns/op · 400 B/op · 4 allocs/op · +201.60 ns added</text>
<text x="752" y="847" fill="#A9A1B3" font-family="Inter, system-ui, sans-serif" font-size="13" font-weight="600">Chi</text>
<rect x="863" y="836" width="270" height="9" rx="4.5" fill="#2C2734"/><rect x="863" y="836" width="130" height="9" rx="4.5" fill="#746C80"/>
<line data-sample-range="middleware_chain/chi" x1="992" y1="840" x2="1014" y2="840" stroke="#A9A1B3" stroke-width="1.5" stroke-linecap="round"/><line x1="992" y1="836" x2="992" y2="844" stroke="#A9A1B3" stroke-width="1.5"/><line x1="1014" y1="836" x2="1014" y2="844" stroke="#A9A1B3" stroke-width="1.5"/>
<text x="1366" y="845" fill="#FFFFFF" text-anchor="end" font-family="JetBrains Mono, ui-monospace, monospace" font-size="13" font-weight="650">2.50M ops/s</text>
<text x="863" y="858" fill="#746C80" font-family="JetBrains Mono, ui-monospace, monospace" font-size="11">400.80 ns/op · 768 B/op · 6 allocs/op · +159.50 ns added</text>
<text x="752" y="890" fill="#A9A1B3" font-family="Inter, system-ui, sans-serif" font-size="13" font-weight="600">Gorilla Mux</text>
<rect x="863" y="879" width="270" height="9" rx="4.5" fill="#2C2734"/><rect x="863" y="879" width="77" height="9" rx="4.5" fill="#746C80"/>
<line data-sample-range="middleware_chain/gorilla_mux" x1="940" y1="883" x2="958" y2="883" stroke="#A9A1B3" stroke-width="1.5" stroke-linecap="round"/><line x1="940" y1="879" x2="940" y2="887" stroke="#A9A1B3" stroke-width="1.5"/><line x1="958" y1="879" x2="958" y2="887" stroke="#A9A1B3" stroke-width="1.5"/>
<text x="1366" y="888" fill="#FFFFFF" text-anchor="end" font-family="JetBrains Mono, ui-monospace, monospace" font-size="13" font-weight="650">1.48M ops/s</text>
<text x="863" y="901" fill="#746C80" font-family="JetBrains Mono, ui-monospace, monospace" font-size="11">676.40 ns/op · 1320 B/op · 14 allocs/op · +232.20 ns added</text>
<text x="752" y="933" fill="#A9A1B3" font-family="Inter, system-ui, sans-serif" font-size="13" font-weight="600">httprouter</text>
<rect x="863" y="922" width="270" height="9" rx="4.5" fill="#2C2734"/><rect x="863" y="922" width="233" height="9" rx="4.5" fill="#746C80"/>
<line data-sample-range="middleware_chain/httprouter" x1="1094" y1="926" x2="1133" y2="926" stroke="#A9A1B3" stroke-width="1.5" stroke-linecap="round"/><line x1="1094" y1="922" x2="1094" y2="930" stroke="#A9A1B3" stroke-width="1.5"/><line x1="1133" y1="922" x2="1133" y2="930" stroke="#A9A1B3" stroke-width="1.5"/>
<text x="1366" y="931" fill="#FFFFFF" text-anchor="end" font-family="JetBrains Mono, ui-monospace, monospace" font-size="13" font-weight="650">4.46M ops/s</text>
<text x="863" y="944" fill="#746C80" font-family="JetBrains Mono, ui-monospace, monospace" font-size="11">224.10 ns/op · 400 B/op · 4 allocs/op · +161.69 ns added</text>
<line x1="52" y1="1022" x2="1388" y2="1022" stroke="#2A2333"/>
<text x="52" y="1055" fill="#A9A1B3" font-family="Inter, system-ui, sans-serif" font-size="14">go1.27.0 · linux/arm64 · arm64 (CPU model unavailable) · GOMAXPROCS=1 · median of 7 samples · benchtime=1s · revision d35a5199547f</text>
<text x="52" y="1083" fill="#746C80" font-family="Inter, system-ui, sans-serif" font-size="13">Loopback is HTTP/1.1 req/s; other panels are in-process ServeHTTP ops/s. Small differences and overlapping ranges are not rankings.</text>
<text x="52" y="1111" fill="#746C80" font-family="JetBrains Mono, ui-monospace, monospace" font-size="13">Environment: Kernel Linux 7.0.14-orbstack-00380-ga7e0a2dc9535 · CGO_ENABLED=1 · GOARM64=v8.0 · GODEBUG=(unset) · GOEXPERIMENT=(unset) · GOFLAGS=(unset)</text>
<text x="52" y="1133" fill="#746C80" font-family="JetBrains Mono, ui-monospace, monospace" font-size="13">Inputs sha256:2514265b65f31492e826b6632b098c8ab9fea2cee4af3e8de235b434b13635f9</text>
<text x="52" y="1155" fill="#746C80" font-family="JetBrains Mono, ui-monospace, monospace" font-size="13">Dependencies: net/http go1.27.0 · GoForj Web local checkout · Echo v5.3.1 · Gin v1.12.0 · Chi v5.3.2 · Gorilla Mux v1.8.1 · httprouter v1.3.0</text>
</svg>
